<svg width="155" height="22" viewBox="0 0 155 22" fill="none" xmlns="http://www.w3.org/2000/svg">
<g clip-path="url(#clip0_83_1803)">
<path d="M21.4383 10.9383C21.4383 4.97012 26.354 0.143537 32.5003 0.143537C38.6896 0.143537 43.6067 4.97281 43.6067 10.9383C43.6067 16.8622 38.6896 21.7773 32.5003 21.7773C26.354 21.7773 21.4383 16.8568 21.4383 10.9383ZM38.2951 10.9383C38.2951 7.95488 35.705 5.32159 32.5003 5.32159C29.34 5.32159 26.7499 7.95488 26.7499 10.9383C26.7499 13.966 29.34 16.5993 32.5003 16.5993C35.7104 16.5993 38.2951 13.966 38.2951 10.9383ZM132.99 11.114C132.99 4.57573 138.302 0.143537 143.131 0.143537C146.423 0.143537 148.312 1.15232 149.584 3.08402L150.09 0.535244H155.027V21.3816H150.09L149.452 19.2352C148.004 20.8155 146.203 21.784 143.131 21.784C138.39 21.7773 132.99 17.608 132.99 11.114ZM149.847 11.0698C149.835 7.91369 147.234 5.3236 144.076 5.3236C140.91 5.3236 138.306 7.92751 138.306 11.0919V11.114C138.306 14.0102 140.896 16.5993 144.057 16.5993C147.258 16.5993 149.847 14.0102 149.847 11.0698ZM126.923 2.95122V0.536585H121.524V21.3816H126.923V10.1495C126.923 6.77037 128.592 5.01573 131.486 5.01573C131.678 5.01573 131.86 5.02915 132.039 5.04659L133.04 0.0147561C130.226 0.0295122 128.186 0.994024 126.923 2.95122ZM72.6702 2.95256V0.537927L67.2713 0.55L67.317 21.3923L72.7158 21.3802L72.6863 10.1495C72.6782 6.77171 74.3436 5.01305 77.2397 5.00634C77.4243 5.00688 77.609 5.01721 77.7926 5.0372L78.7883 0C75.9701 0.0228049 73.9276 0.991342 72.6702 2.95256ZM45.4774 13.3073V0.537927H50.8749V12.65C50.8749 15.3262 52.3672 16.9065 54.9572 16.9065C57.8546 16.9065 59.52 15.1505 59.52 11.7713V0.537927H64.9202V21.3816H59.524V18.967C58.2518 20.9416 56.1878 21.9074 53.3348 21.9074C48.5063 21.9088 45.4774 18.3982 45.4774 13.3073ZM98.0486 10.9624C98.0607 5.12573 102.24 0.131463 108.868 0.143537C115.014 0.15561 119.35 5.07744 119.335 10.8752C119.337 11.4485 119.291 12.0209 119.201 12.587L103.311 12.5574C103.92 15.0593 105.98 16.8622 109.097 16.8689C110.984 16.8689 113.005 16.174 114.237 14.5965L117.919 17.5477C116.026 20.2212 112.686 21.7948 109.132 21.788C102.858 21.7666 98.0378 17.0621 98.0486 10.9624ZM113.9 8.79732C113.597 6.69122 111.405 5.06268 108.815 5.05866C106.313 5.05866 104.292 6.54232 103.497 8.77854L113.9 8.79732ZM78.8205 16.838L83.6195 14.3268C84.4126 16.0452 85.9988 17.0581 88.2467 17.0581C90.3174 17.0581 91.1105 16.398 91.1105 15.4724C91.1105 12.1188 79.7425 14.1511 79.7425 6.48463C79.7425 2.25634 83.4437 0.0107317 88.0252 0.0107317C91.5064 0.0107317 94.5903 1.55207 96.2651 4.41476L91.5091 6.93C90.8045 5.52012 89.4826 4.72732 87.8078 4.72732C86.1787 4.72732 85.3842 5.30012 85.3842 6.26866C85.3842 9.52841 96.7522 7.45854 96.7522 15.2565C96.7522 19.309 93.4482 21.7746 88.1165 21.7746C83.5779 21.7706 80.4054 20.2735 78.8205 16.838ZM0 10.9383C0 4.9272 4.91571 0.0992683 11.062 0.0992683C14.8125 0.0729756 18.3332 1.94204 20.4117 5.06268L15.8033 7.73488C15.2698 6.97346 14.56 6.3523 13.7344 5.92438C12.9089 5.49645 11.992 5.27446 11.062 5.27732C7.90165 5.27732 5.3116 7.91061 5.3116 10.9383C5.3116 13.966 7.90165 16.5993 11.062 16.5993C12.0358 16.6051 12.9949 16.3615 13.8478 15.8919C14.7008 15.4223 15.4193 14.7421 15.9348 13.9163L20.4976 16.6368C18.4434 19.8503 14.8744 21.7922 11.0594 21.772C4.91572 21.7773 0 16.8568 0 10.9383Z" fill="#0056D2"/>
</g>
<defs>
<clipPath id="clip0_83_1803">
<rect width="155" height="22" fill="white"/>
</clipPath>
</defs>
</svg>
