<svg width="115" height="44" viewBox="0 0 115 44" fill="none" xmlns="http://www.w3.org/2000/svg">
<path d="M60.3555 30.3106C63.3127 30.3106 65.1116 28.575 65.1116 25.9839V25.5195C65.1116 23.4906 64.0273 22.1461 61.6123 21.095L60.2569 20.5084C58.6305 19.7995 58.1869 19.0661 58.1869 18.015V17.7461C58.1869 16.475 59.0494 15.7417 60.4787 15.7417C62.0805 15.7417 62.7212 16.5728 62.7212 18.015V18.7483H64.9637V18.015C64.9637 15.2528 63.288 13.6884 60.5034 13.6884C57.6694 13.6884 55.9444 15.375 55.9444 17.8195V18.2839C55.9444 20.1906 57.0287 21.4617 59.2959 22.4639L60.6019 23.0506C62.253 23.7839 62.8198 24.5906 62.8198 25.7639V26.0328C62.8198 27.4261 61.8834 28.2572 60.3555 28.2572C58.7784 28.2572 57.9405 27.3284 57.9405 25.6417V24.9083H55.7227V25.6417C55.7227 28.6239 57.3737 30.3106 60.3555 30.3106ZM71.2969 30.3106C73.983 30.3106 75.5848 28.795 75.5848 26.2528V25.275H73.3669V26.155C73.3669 27.4261 72.5784 28.2328 71.2969 28.2328C70.0155 28.2328 69.2023 27.4017 69.2023 26.155V21.755C69.2023 20.4839 70.0155 19.6528 71.2969 19.6528C72.5784 19.6528 73.3669 20.4839 73.3669 21.755V22.7084H75.5848V21.6817C75.5848 19.115 73.983 17.5995 71.2969 17.5995C68.5862 17.5995 66.9844 19.115 66.9844 21.6817V26.2528C66.9844 28.795 68.6109 30.3106 71.2969 30.3106ZM82.6918 17.5995C81.6814 17.5995 80.7697 17.9661 80.0797 18.6017V13.0039H77.8618V30.0172H80.0797V20.8506C80.5479 20.1172 81.3364 19.6528 82.1743 19.6528C83.505 19.6528 84.2443 20.3372 84.2443 21.8284V30.0172H86.4129V21.4617C86.4129 18.9684 85.0082 17.5995 82.6918 17.5995ZM93.0166 30.3106C95.5795 30.3106 97.3291 28.9417 97.3291 26.2528V21.6817C97.3291 18.9684 95.5795 17.5995 93.0166 17.5995C90.4784 17.5995 88.7041 18.9684 88.7041 21.6817V26.2528C88.7041 28.9417 90.4784 30.3106 93.0166 30.3106ZM93.0166 28.2328C91.8091 28.2328 90.922 27.4995 90.922 26.155V21.755C90.922 20.3861 91.8091 19.6528 93.0166 19.6528C94.2241 19.6528 95.1113 20.3861 95.1113 21.755V26.155C95.1113 27.4995 94.2487 28.2328 93.0166 28.2328ZM103.768 30.3106C106.331 30.3106 108.081 28.9417 108.081 26.2528V21.6817C108.081 18.9684 106.331 17.5995 103.768 17.5995C101.23 17.5995 99.4555 18.9684 99.4555 21.6817V26.2528C99.4555 28.9417 101.23 30.3106 103.768 30.3106ZM103.768 28.2328C102.561 28.2328 101.673 27.4995 101.673 26.155V21.755C101.673 20.3861 102.561 19.6528 103.768 19.6528C104.976 19.6528 105.863 20.3861 105.863 21.755V26.155C105.863 27.4995 105 28.2328 103.768 28.2328ZM113.41 30.0172H114.643V28.0128H113.755C112.942 28.0128 112.696 27.6217 112.696 26.8395V13.0039H110.503V27.2061C110.503 29.0395 111.538 30.0172 113.41 30.0172Z" fill="black"/>
<path d="M43.8095 0.140625H0V43.5974H43.8095V0.140625Z" fill="#3104D7"/>
<path d="M29.2748 15.1743C30.0648 13.9682 31.4936 11.7963 31.4936 11.7963L29.667 10.4614L26.5293 15.1801L26.4004 15.3733H29.1459L29.2748 15.1743Z" fill="white"/>
<path d="M26.9361 18.7702H25.328V17.0078L25.1823 17.2303L24.6164 18.0812C23.4328 19.8607 22.321 21.5323 21.9438 22.1134C21.4348 21.3264 20.8887 20.4731 20.3453 19.6241L20.3442 19.6224C19.8532 18.8552 19.3642 18.091 18.9068 17.3825L18.0664 20.3159C19.5344 22.6228 20.7559 24.5784 20.7559 24.5784V32.19H23.1484V24.5843C23.1484 24.5843 24.7733 22.1017 26.8969 18.858L26.9361 18.7702Z" fill="white"/>
<path d="M16.131 15.3797L15.7444 16.7147C15.2258 15.9072 14.7058 15.0959 14.2042 14.313C13.6328 13.4213 13.0851 12.5665 12.5898 11.7964L14.4053 10.4731L17.5654 15.3621L17.5766 15.3797H16.131Z" fill="white"/>
<path d="M32.3098 16.0061L28.7406 16.0002H25.9279V18.1432H29.2618L24.8633 32.1837H31.9793V30.029H28.0123L32.3098 16.0061Z" fill="white"/>
<path d="M18.4703 16.7141L16.3467 24.0915L18.6719 32.1832H16.5876L15.086 26.9722L13.5899 32.1832H11.5L13.8309 24.0915L11.5 16.0056H13.5899L15.086 21.2166L16.5876 16.0056H18.6719L18.4703 16.7141Z" fill="white"/>
</svg>
