<svg width="115" height="26" viewBox="0 0 115 26" fill="none" xmlns="http://www.w3.org/2000/svg">
<g clip-path="url(#clip0_83_1451)">
<path fill-rule="evenodd" clip-rule="evenodd" d="M16.0255 18.5327C16.0255 22.6162 12.8291 25.5776 7.75186 25.5776C4.80781 25.4947 2.01783 24.2207 0 22.0381L1.69804 20.1274C3.28735 21.667 5.15737 23.1633 7.71825 23.1633C10.5628 23.1633 13.6297 21.5403 13.6297 18.6262C13.6297 16.2058 11.7389 14.627 7.76569 13.3821C3.23794 11.9743 0.937971 10.0637 0.937971 6.47184C0.937971 2.91715 3.8952 0 8.10866 0C11.2557 0 13.2245 1.36455 15.141 3.10822L13.4716 4.99365C11.7913 3.47926 10.1902 2.45258 8.22529 2.45258C5.78795 2.45258 3.38223 4.05144 3.38223 6.35318C3.38223 8.43873 4.56038 9.76709 8.71947 11.0623C12.5287 12.2558 16.0255 14.1051 16.0255 18.5316V18.5327ZM36.577 2.35519C36.577 3.47512 37.4691 4.38302 38.5696 4.38302C39.0981 4.38328 39.6051 4.16973 39.9788 3.78937C40.3526 3.40903 40.5624 2.89308 40.5621 2.35519C40.5621 1.23525 39.67 0.327358 38.5696 0.327358C37.4691 0.327358 36.577 1.23525 36.577 2.35519ZM55.8593 0.742978H53.4575V25.1771H55.8593V0.742978ZM61.4647 24.3638C61.4647 24.3638 62.9433 25.5855 67.8694 25.5855L67.8664 25.5846C72.7293 25.5846 76.6758 21.9665 76.6758 17.0231C76.6758 12.0797 72.7322 8.4758 67.8694 8.4758C66.49 8.43822 65.1206 8.72306 63.8665 9.3084V0.742978H61.4647V24.3638ZM79.48 17.0445C79.4796 21.9901 83.4201 25.9995 88.2814 26.0001C93.143 26.0001 97.0844 21.991 97.0849 17.0452C97.0849 12.0997 93.1441 8.09056 88.2827 8.09037C83.4215 8.09019 79.4803 12.0991 79.48 17.0445ZM111.649 25.1847H114.784L107.852 16.7851L114.316 8.90749H111.199L106.29 14.8907L101.356 8.90749H98.2207L104.731 16.7961L97.848 25.1847H100.964L106.293 18.6907L111.649 25.1847ZM88.2965 10.5081C85.7039 10.5077 83.3663 12.0964 82.374 14.5332C81.3817 16.9701 81.93 19.7751 83.7632 21.6403C85.5965 23.5054 88.3537 24.0634 90.7488 23.0537C93.1441 22.0441 94.7056 19.6659 94.7052 17.0282C94.7046 13.4275 91.8358 10.5086 88.2965 10.5081ZM67.869 10.9244C66.4348 10.9449 65.0398 11.4047 63.8661 12.2439V22.3289C65.1101 22.9441 66.4884 23.2245 67.869 23.1435C71.4055 23.1435 74.2737 20.6293 74.2737 17.034C74.2737 13.4387 71.4026 10.9234 67.8661 10.9234L67.869 10.9244ZM45.4528 0.743253H47.8545V25.1773H45.4528V0.743253ZM30.6398 25.1792L22.2386 16.6318L29.8441 8.88902H33.2402L25.6347 16.6318L34.0359 25.1792H30.6398ZM19.8293 0.742978V25.1771H22.231V0.742978H19.8293ZM37.4531 25.1792H39.8548V8.88902H37.4531V25.1792Z" fill="black"/>
</g>
<defs>
<clipPath id="clip0_83_1451">
<rect width="115" height="26" fill="white"/>
</clipPath>
</defs>
</svg>
