<svg width="78" height="38" viewBox="0 0 78 38" fill="none" xmlns="http://www.w3.org/2000/svg">
<path d="M22.6025 20.1918L18.4736 14.403V20.1918H14.2012V6.86963H18.4736V12.503L22.7158 6.90664H27.7757L22.5749 13.1914L27.8562 20.1918H22.6025Z" fill="black"/>
<path d="M75.3043 37.7138C76.6869 37.7138 77.8079 36.6268 77.8079 35.2857C77.8079 33.9449 76.6869 32.8577 75.3043 32.8577C73.9217 32.8577 72.8008 33.9449 72.8008 35.2857C72.8008 36.6268 73.9217 37.7138 75.3043 37.7138Z" fill="black"/>
<path d="M31.7164 4.8561C33.0991 4.8561 34.22 3.76903 34.22 2.42805C34.22 1.08708 33.0991 0 31.7164 0C30.3338 0 29.2129 1.08708 29.2129 2.42805C29.2129 3.76903 30.3338 4.8561 31.7164 4.8561Z" fill="black"/>
<path d="M33.8525 6.86963H29.5801V20.1918H33.8525V6.86963Z" fill="black"/>
<path d="M29.5 30.7948C29.5 26.8245 32.001 23.7944 35.9363 23.7944C37.9039 23.7944 39.4488 24.7049 40.181 26.0547V24.1522H44.4534V37.4374H40.181V35.5621C39.4488 36.8847 37.763 37.7952 35.8809 37.7952C31.835 37.7977 29.5 34.7922 29.5 30.7948ZM40.3495 30.7948C40.3495 28.8923 39.2525 27.3205 37.1163 27.3205C35.121 27.3205 33.8831 28.7813 33.8831 30.7948C33.8831 32.8058 35.1185 34.2962 37.1163 34.2962C39.255 34.2962 40.3495 32.7244 40.3495 30.7948Z" fill="black"/>
<path d="M46.9688 24.1522H51.2688V26.9356C51.7469 24.9517 53.3497 23.9326 55.0078 23.9326C55.5135 23.9326 55.7953 23.9598 56.1325 24.0437L56.1098 27.9547C55.6041 27.8979 55.3726 27.8733 54.8392 27.8733C52.5067 27.8733 51.2688 29.3612 51.2688 32.3099V37.4374H46.9688V24.1522Z" fill="black"/>
<path d="M57.002 30.7948C57.002 26.4396 59.898 23.7944 64.3088 23.7944C68.5258 23.7944 71.3917 26.3582 71.3917 30.1064C71.3917 30.7948 71.364 31.2093 71.2785 31.9521H61.2718C61.3549 33.6892 62.5374 34.6269 64.4472 34.6269C65.7681 34.6269 66.611 34.2691 66.9759 33.4425H71.1929C70.7727 36.0605 68.0452 37.7977 64.4472 37.7977C59.8401 37.7977 57.002 35.2339 57.002 30.7948ZM67.1495 29.334C67.1218 27.5697 66.1103 26.6321 64.2836 26.6321C62.4292 26.6321 61.3045 27.7079 61.2769 29.334H67.1495Z" fill="black"/>
<path d="M40.636 16.2364V6.86963H36.3359V16.3721V20.1918H40.636H46.7703V16.2364H40.636Z" fill="black"/>
<path d="M53.3997 16.2364V6.86963H49.0996V16.3721V20.1918H53.3997H59.534V16.2364H53.3997Z" fill="black"/>
<path d="M23.5687 24.1472V28.9318H18.4157V24.1472H14.2012V28.9318V32.7515V37.4719H18.4157V32.7515H23.5687V37.4719H27.7858V32.7515V28.9318V24.1472H23.5687Z" fill="black"/>
<path d="M8.89703 29.5487L6.27019 28.8356C5.382 28.5765 5.07503 28.1941 5.07503 27.6537C5.07503 27.0639 5.54806 26.716 6.15948 26.6469C7.04768 26.5457 7.73458 26.9233 7.73458 27.8634V27.9251H12.2535V27.8634H12.251C12.251 25.2108 9.96387 23.7476 6.14439 23.7476C2.66206 23.7476 0.359806 25.4057 0.359806 27.9202C0.359806 29.9361 1.59523 31.2908 3.75658 31.8139L6.46645 32.4802C7.27161 32.7294 7.59619 33.1168 7.59368 33.7238C7.59116 34.3876 6.91181 34.7626 6.21735 34.7947C5.2109 34.8391 4.47871 34.3037 4.42335 33.4524H0C0.0654194 35.9939 2.60168 37.7804 6.39852 37.7804C9.99155 37.7804 12.324 36.1518 12.324 33.3882C12.3215 31.3722 11.0307 30.1015 8.89703 29.5487Z" fill="black"/>
<path d="M8.89703 12.3031L6.27019 11.59C5.382 11.3309 5.07503 10.9484 5.07503 10.4081C5.07503 9.81832 5.54806 9.47039 6.15948 9.4013C7.04768 9.30013 7.73458 9.67767 7.73458 10.6178V10.6795H12.2535V10.6178H12.251C12.251 7.9652 9.96387 6.50195 6.14439 6.50195C2.66206 6.50195 0.359806 8.16013 0.359806 10.6746C0.359806 12.6905 1.59523 14.0452 3.75658 14.5683L6.46645 15.2346C7.27161 15.4838 7.59619 15.8712 7.59368 16.4782C7.59116 17.142 6.91181 17.517 6.21735 17.5491C5.2109 17.5935 4.47871 17.0581 4.42335 16.2068H0C0.0654194 18.7483 2.60168 20.5348 6.39852 20.5348C9.99155 20.5348 12.324 18.9062 12.324 16.1426C12.3215 14.1266 11.0307 12.8558 8.89703 12.3031Z" fill="black"/>
</svg>
